<svg width="27" height="28" viewBox="0 0 27 28" fill="none" xmlns="http://www.w3.org/2000/svg">
<g clip-path="url(#clip0_33447_2503)">
<path d="M18.7817 0.828619C18.7251 0.766025 16.6866 0.853327 14.9127 2.75916C13.1388 4.66335 13.4117 6.84756 13.4516 6.90357C13.4916 6.95957 15.981 7.04688 17.5702 4.83136C19.1594 2.61585 18.8383 0.892861 18.7817 0.828619ZM24.2965 20.1555C24.2166 19.9973 20.4275 18.1228 20.7803 14.5187C21.133 10.9129 23.5676 9.92457 23.6059 9.8175C23.6441 9.71043 22.6124 8.5162 21.5191 7.91167C20.7164 7.48545 19.828 7.24126 18.9182 7.19677C18.7384 7.19183 18.1144 7.04029 16.8314 7.38785C15.986 7.61681 14.0807 8.35806 13.5565 8.38771C13.0306 8.41736 11.4664 7.52786 9.784 7.29231C8.70734 7.08641 7.56578 7.5081 6.74871 7.8326C5.93331 8.15546 4.38238 9.0746 3.2974 11.5174C2.21242 13.9586 2.77987 17.8263 3.18591 19.0288C3.59194 20.2296 4.22596 22.198 5.30429 23.6344C6.2628 25.2553 7.53416 26.3803 8.065 26.7625C8.59584 27.1446 10.0935 27.3983 11.1319 26.8728C11.9673 26.3655 13.4749 26.0739 14.0707 26.0953C14.6648 26.1167 15.8363 26.349 17.0361 26.9832C17.9863 27.3077 18.8849 27.1726 19.7851 26.8102C20.6854 26.4462 21.9884 25.0658 23.5094 22.2672C24.0868 20.9659 24.3497 20.2625 24.2965 20.1555Z" fill="#13121A"/>
<path d="M18.7817 0.828619C18.7251 0.766025 16.6866 0.853327 14.9127 2.75916C13.1388 4.66335 13.4117 6.84756 13.4516 6.90357C13.4916 6.95957 15.981 7.04688 17.5702 4.83136C19.1594 2.61585 18.8383 0.892861 18.7817 0.828619ZM24.2965 20.1555C24.2166 19.9973 20.4275 18.1228 20.7803 14.5187C21.133 10.9129 23.5676 9.92457 23.6059 9.8175C23.6441 9.71043 22.6124 8.5162 21.5191 7.91167C20.7164 7.48545 19.828 7.24126 18.9182 7.19677C18.7384 7.19183 18.1144 7.04029 16.8314 7.38785C15.986 7.61681 14.0807 8.35806 13.5565 8.38771C13.0306 8.41736 11.4664 7.52786 9.784 7.29231C8.70734 7.08641 7.56578 7.5081 6.74871 7.8326C5.93331 8.15546 4.38238 9.0746 3.2974 11.5174C2.21242 13.9586 2.77987 17.8263 3.18591 19.0288C3.59194 20.2296 4.22596 22.198 5.30429 23.6344C6.2628 25.2553 7.53416 26.3803 8.065 26.7625C8.59584 27.1446 10.0935 27.3983 11.1319 26.8728C11.9673 26.3655 13.4749 26.0739 14.0707 26.0953C14.6648 26.1167 15.8363 26.349 17.0361 26.9832C17.9863 27.3077 18.8849 27.1726 19.7851 26.8102C20.6854 26.4462 21.9884 25.0658 23.5094 22.2672C24.0868 20.9659 24.3497 20.2625 24.2965 20.1555Z" fill="#13121A"/>
</g>
<defs>
<clipPath id="clip0_33447_2503">
<rect width="26.6253" height="26.3555" fill="white" transform="translate(0.173828 0.81543)"/>
</clipPath>
</defs>
</svg>
