<svg xmlns="http://www.w3.org/2000/svg" version="1.1" xmlns:xlink="http://www.w3.org/1999/xlink" width="512" height="512" x="0" y="0" viewBox="0 0 512.001 512.001" style="enable-background:new 0 0 512 512" xml:space="preserve"><g><path d="M511.265 194.414a15 15 0 0 0-13.295-10.33l-166.679-10.801-61.828-155.33a15 15 0 0 0-27.874 0l-61.828 155.333-165.736 10.799a15 15 0 0 0-8.653 26.471L132.95 317.353 91.659 479.398a15.001 15.001 0 0 0 22.55 16.383l141.318-89.323 141.319 89.323a15 15 0 0 0 22.55-16.383l-41.282-162.01 128.476-106.8a15 15 0 0 0 4.675-16.174zM351.65 300.375a14.997 14.997 0 0 0-4.946 15.238l34.316 134.675-117.479-74.254c-2.448-1.547-5.231-2.32-8.015-2.32s-5.566.773-8.015 2.32l-117.478 74.254 34.316-134.675a15.001 15.001 0 0 0-4.906-15.206l-106.102-88.82 137.828-8.98a15 15 0 0 0 12.961-9.421l51.396-129.125 51.397 129.125a15 15 0 0 0 12.967 9.421l138.567 8.979-106.807 88.789z" fill="#ffffff" opacity="1" data-original="#000000"></path><path d="M269.468 180.198a15 15 0 0 0-27.874 0l-20.106 50.504-54.262 3.518a15.001 15.001 0 0 0-8.613 26.507l41.824 34.739-13.421 52.675a14.999 14.999 0 0 0 22.547 16.385l45.967-29.04 45.953 29.039a15 15 0 0 0 22.548-16.383l-13.421-52.675 41.824-34.739a15 15 0 0 0-8.613-26.507l-54.247-3.517-20.106-50.506zm14.683 98.248a15 15 0 0 0-4.951 15.243l6.458 25.349-22.113-13.974a15 15 0 0 0-16.024-.001l-22.131 13.981 6.46-25.355a15 15 0 0 0-4.951-15.243l-20.137-16.726 26.128-1.693a15.003 15.003 0 0 0 12.966-9.42l9.677-24.307 9.677 24.307a15.001 15.001 0 0 0 12.966 9.42l26.114 1.693-20.139 16.726z" fill="#ffffff" opacity="1" data-original="#000000"></path><circle cx="256.001" cy="488.501" r="15" fill="#ffffff" opacity="1" data-original="#000000"></circle><circle cx="455.723" cy="343.394" r="15" transform="rotate(-72.002 455.692 343.382)" fill="#ffffff" opacity="1" data-original="#000000"></circle><circle cx="379.435" cy="108.607" r="15" transform="rotate(-53.999 379.443 108.608)" fill="#ffffff" opacity="1" data-original="#000000"></circle><circle cx="132.566" cy="108.607" r="15" transform="rotate(-36.002 132.56 108.606)" fill="#ffffff" opacity="1" data-original="#000000"></circle><circle cx="56.279" cy="343.394" r="15" transform="rotate(-17.998 56.289 343.418)" fill="#ffffff" opacity="1" data-original="#000000"></circle></g></svg>