<svg xmlns="http://www.w3.org/2000/svg" version="1.1" xmlns:xlink="http://www.w3.org/1999/xlink" width="512" height="512" x="0" y="0" viewBox="0 0 512 512" style="enable-background:new 0 0 512 512" xml:space="preserve" class=""><g><path d="M366.587 109.864v152.992c0 3.305-2.597 5.902-5.902 5.902-11.569 0-21.013 9.444-21.013 21.091 0 3.227-2.676 5.902-5.902 5.902h-63.904c-3.227 0-5.902-2.676-5.902-5.902 0-11.647-9.444-21.091-21.013-21.091-3.305 0-5.902-2.597-5.902-5.902V109.864c0-3.305 2.597-5.902 5.902-5.902 11.569 0 21.013-9.444 21.013-21.091 0-3.226 2.676-5.902 5.902-5.902h63.904c3.226 0 5.902 2.676 5.902 5.902 0 11.647 9.444 21.091 21.013 21.091 3.305 0 5.902 2.597 5.902 5.902z" fill="#ffffff" opacity="1" data-original="#000000" class=""></path><path d="M436.63 447.013c-17.156-28.017-17.156-55.247 0-83.264.236-.472.787-2.282.787-3.069V35.809c0-16.37-13.3-29.67-29.67-29.67H125.138c-27.859 0-50.604 22.665-50.604 50.604V405.38c0 27.86 22.744 50.604 50.604 50.604h50.446v43.993c0 2.046 1.102 3.935 2.834 5.037 1.81 1.023 4.014 1.102 5.824.157l34.47-18.573 34.47 18.573c1.81.945 4.014.945 5.824-.157s2.912-2.991 2.912-5.037v-43.993h169.676a5.921 5.921 0 0 0 5.116-2.99c1.021-1.889 1.021-4.171-.08-5.981zM178.023 17.944h229.723c9.916 0 17.865 8.027 17.865 17.865v318.968H178.023zm83.894 426.235v-21.091c0-12.985-10.624-23.61-23.61-23.61h-39.114c-13.064 0-23.61 10.625-23.61 23.61v21.091h-50.446c-21.328 0-38.72-17.392-38.799-38.72v-.079c0-21.406 17.393-38.799 38.799-38.799h296.382c-12.67 25.814-12.67 51.784.079 77.597H261.917z" fill="#ffffff" opacity="1" data-original="#000000" class=""></path></g></svg>