<svg xmlns="http://www.w3.org/2000/svg" version="1.1" xmlns:xlink="http://www.w3.org/1999/xlink" width="512" height="512" x="0" y="0" viewBox="0 0 68 68" style="enable-background:new 0 0 512 512" xml:space="preserve"><g><path d="M36.438 32.9h-4.87a1 1 0 0 1-.942-.664l-.63-1.76c-1.024-.422-1.7-.704-2.73-1.131l-1.679.798a1 1 0 0 1-1.136-.197L21 26.506a1 1 0 0 1-.197-1.134l.8-1.69-1.13-2.728-1.76-.622a.999.999 0 0 1-.666-.942v-4.88c0-.424.267-.802.667-.943l1.76-.622 1.129-2.728-.8-1.69a1 1 0 0 1 .197-1.134l1.4-1.397c.57-.57.977-.975 2.047-2.052.301-.301.76-.38 1.143-.196l1.677.806c1.03-.428 1.705-.708 2.728-1.13l.63-1.76A1 1 0 0 1 31.568 1h4.87a1 1 0 0 1 .941.663l.642 1.793c.335.176.709.4 1.074.62.19.114.395.237.567.335l2.627-.941a1.006 1.006 0 0 1 1.048.237c0 .001 1.95 1.968 3.668 3.686a1 1 0 0 1 .197 1.134L46.4 10.22c.327.797.569 1.378.86 2.077l.27.65 1.752.621a1 1 0 0 1 .666.943v4.88a1 1 0 0 1-.666.942l-1.751.622-.27.65c-.292.699-.534 1.28-.86 2.077l.8 1.691a1 1 0 0 1-.196 1.135l-3.45 3.44c-.3.3-.754.378-1.137.196l-1.678-.798-.063.025c-.995.414-1.664.692-2.667 1.106l-.63 1.76a1 1 0 0 1-.942.663zm-4.166-2h3.462l.542-1.517c.096-.267.3-.48.561-.588 1.244-.512 1.95-.805 3.073-1.272l.474-.197c.262-.107.557-.1.813.02l1.444.687 2.45-2.443-.687-1.452a1 1 0 0 1-.022-.806c.418-1.024.691-1.68 1.032-2.497l.44-1.059a1 1 0 0 1 .59-.558l1.504-.534v-3.468l-1.505-.534a1 1 0 0 1-.589-.559l-.44-1.059c-.34-.817-.614-1.472-1.032-2.497a1 1 0 0 1 .022-.805l.688-1.453c-1.067-1.07-2.142-2.152-2.727-2.742l-2.44.874a.995.995 0 0 1-.73-.022c-.287-.122-.678-.357-1.13-.629-.421-.253-.946-.568-1.232-.687a.995.995 0 0 1-.557-.586L35.734 3h-3.462l-.543 1.517a.999.999 0 0 1-.561.587c-1.273.524-1.983.82-3.156 1.306l-.39.163c-.264.109-.561.1-.817-.022l-1.44-.693c-.718.723-1.08 1.082-1.553 1.554l-.898.898.688 1.452a1 1 0 0 1 .02.811l-1.47 3.55a.996.996 0 0 1-.591.559l-1.513.535v3.466l1.513.535a.996.996 0 0 1 .59.558l1.47 3.55a1 1 0 0 1-.02.812l-.687 1.452 2.45 2.443 1.444-.686c.256-.121.552-.128.814-.02l.39.162c1.173.487 1.883.782 3.156 1.306a.999.999 0 0 1 .561.588z" fill="#ffffff" opacity="1" data-original="#000000"></path><path d="M33.99 47.12a1 1 0 0 1-1-1V31.9a1 1 0 1 1 2 0v14.22a1 1 0 0 1-1 1zM63.998 67h-10.98c-1.655 0-3-1.346-3-3V48.12c0-1.655 1.345-3 3-3h10.98c1.654 0 3 1.345 3 3V64c0 1.654-1.346 3-3 3zm-10.98-19.88c-.552 0-1 .447-1 1V64c0 .552.448 1 1 1h10.98c.55 0 1-.448 1-1V48.12c0-.553-.45-1-1-1z" fill="#ffffff" opacity="1" data-original="#000000"></path><path d="M60.998 57.059h-4.98a1 1 0 1 1 0-2h4.98a1 1 0 1 1 0 2zM60.998 61.999h-4.98a1 1 0 1 1 0-2h4.98a1 1 0 1 1 0 2zM60.999 52.12h-4.98a1 1 0 1 1 0-2h4.98a1 1 0 1 1 0 2zM39.49 67H28.51c-1.654 0-3-1.346-3-3V48.12c0-1.655 1.346-3 3-3h10.98c1.655 0 3 1.345 3 3V64c0 1.654-1.345 3-3 3zM28.51 47.12c-.55 0-1 .447-1 1V64c0 .552.45 1 1 1h10.98c.552 0 1-.448 1-1V48.12c0-.553-.448-1-1-1z" fill="#ffffff" opacity="1" data-original="#000000"></path><path d="M36.491 57.059h-4.98a1 1 0 1 1 0-2h4.98a1 1 0 1 1 0 2zM36.491 61.999h-4.98a1 1 0 1 1 0-2h4.98a1 1 0 1 1 0 2zM36.492 52.12h-4.98a1 1 0 1 1 0-2h4.98a1 1 0 1 1 0 2zM14.982 67H4.002c-1.654 0-3-1.346-3-3V48.12c0-1.655 1.346-3 3-3h10.98c1.655 0 3 1.345 3 3V64c0 1.654-1.345 3-3 3zM4.002 47.12c-.55 0-1 .447-1 1V64c0 .552.45 1 1 1h10.98c.552 0 1-.448 1-1V48.12c0-.553-.448-1-1-1z" fill="#ffffff" opacity="1" data-original="#000000"></path><path d="M11.983 57.059h-4.98a1 1 0 1 1 0-2h4.98a1 1 0 1 1 0 2zM11.983 61.999h-4.98a1 1 0 1 1 0-2h4.98a1 1 0 1 1 0 2zM11.983 52.12h-4.98a1 1 0 1 1 0-2h4.98a1 1 0 1 1 0 2zM58.508 47.121a1 1 0 0 1-1-1V42.01c0-1.103-.897-2-2-2H12.494c-1.103 0-2 .897-2 2v4.11a1 1 0 1 1-2 0v-4.11c0-2.206 1.795-4 4-4h43.014c2.205 0 4 1.794 4 4v4.111a1 1 0 0 1-1 1zM33.998 25.65c-4.797 0-8.7-3.903-8.7-8.7s3.903-8.7 8.7-8.7c4.803 0 8.71 3.903 8.71 8.7s-3.907 8.7-8.71 8.7zm0-15.4c-3.694 0-6.7 3.006-6.7 6.7s3.006 6.7 6.7 6.7c3.7 0 6.71-3.005 6.71-6.7s-3.01-6.7-6.71-6.7z" fill="#ffffff" opacity="1" data-original="#000000"></path></g></svg>