<svg fill="none" height="64" viewBox="0 0 64 64" width="64" xmlns="http://www.w3.org/2000/svg"><path clip-rule="evenodd" d="m18 2c-8.83656 0-16 7.16344-16 16v28c0 8.8366 7.16344 16 16 16h28c8.8366 0 16-7.1634 16-16v-28c0-8.83656-7.1634-16-16-16zm10 30c0 .567-.2406 1.1073-.6621 1.4866l-10 9c-.821.7389-2.0856.6724-2.8245-.1487-.7389-.821-.6723-2.0856.1487-2.8245l8.3482-7.5134-8.3482-7.5134c-.821-.7389-.8876-2.0035-.1487-2.8245s2.0035-.8876 2.8245-.1487l10 9c.4215.3793.6621.9196.6621 1.4866zm20 11c1.1046 0 2-.8954 2-2s-.8954-2-2-2h-16c-1.1046 0-2 .8954-2 2s.8954 2 2 2z" fill="rgb(0,0,0)" fill-rule="evenodd"/></svg>