<svg xmlns="http://www.w3.org/2000/svg" version="1.1" xmlns:xlink="http://www.w3.org/1999/xlink" width="512" height="512" x="0" y="0" viewBox="0 0 512 512" style="enable-background:new 0 0 512 512" xml:space="preserve" class=""><g><path d="M370.616 425.301a6.988 6.988 0 0 0-6.987 6.988v13.947c0 24.927-20.28 45.206-45.207 45.206H103.333c-24.927 0-45.207-20.28-45.207-45.206v-163.29c0-24.927 20.28-45.206 45.207-45.206h215.088c17.233 0 32.756 9.651 40.511 25.187a6.987 6.987 0 1 0 12.504-6.242c-10.136-20.306-30.45-32.921-53.015-32.921h-6.45v-57.569c0-55.751-45.344-101.108-101.08-101.108-55.751 0-101.108 45.358-101.108 101.108v57.569h-6.45c-32.633 0-59.182 26.549-59.182 59.182v163.29c0 32.633 26.549 59.182 59.182 59.182h215.088c32.633 0 59.182-26.549 59.182-59.182v-13.947a6.986 6.986 0 0 0-6.987-6.988zM243.001 223.763h-64.247v-57.569c0-17.42 14.717-32.137 32.137-32.137 17.405 0 32.109 14.717 32.109 32.137v57.569zm-119.242-57.569c0-48.046 39.088-87.132 87.133-87.132 48.029 0 87.105 39.087 87.105 87.132v57.569h-41.021v-57.569c0-25.427-20.673-46.113-46.084-46.113-25.427 0-46.112 20.686-46.112 46.113v57.569h-41.021zM474.95 272.789H154.227c-20.138 0-36.522 16.384-36.522 36.523v73.469c0 20.138 16.384 36.523 36.522 36.523h29.195v47.951a6.987 6.987 0 0 0 11.85 5.018l54.661-52.969H474.95c20.154 0 36.55-16.384 36.55-36.523v-73.469c0-20.139-16.396-36.523-36.55-36.523zm22.575 109.992c0 12.432-10.127 22.547-22.575 22.547H247.103a6.99 6.99 0 0 0-4.863 1.97l-44.843 43.455v-38.437a6.988 6.988 0 0 0-6.987-6.988h-36.183c-12.433 0-22.547-10.115-22.547-22.547v-73.469c0-12.432 10.115-22.547 22.547-22.547H474.95c12.448 0 22.575 10.115 22.575 22.547zm-245.712-46.398-16.735 9.664 16.735 9.664a6.987 6.987 0 0 1-3.501 13.04 6.952 6.952 0 0 1-3.488-.938l-16.733-9.662v19.312c0 3.859-3.129 6.988-6.987 6.988s-6.987-3.129-6.987-6.988v-19.312l-16.733 9.662a6.985 6.985 0 0 1-9.546-2.557 6.987 6.987 0 0 1 2.557-9.545l16.735-9.664-16.735-9.664a6.988 6.988 0 0 1 6.989-12.102l16.733 9.662V314.63c0-3.859 3.129-6.988 6.987-6.988s6.987 3.129 6.987 6.988v19.312l16.733-9.662a6.988 6.988 0 1 1 6.989 12.103zm93.499 0-16.735 9.664 16.735 9.664a6.987 6.987 0 0 1-3.501 13.04 6.952 6.952 0 0 1-3.488-.938l-16.733-9.663v19.312a6.988 6.988 0 0 1-13.975 0V358.15l-16.733 9.662a6.985 6.985 0 0 1-9.546-2.557 6.987 6.987 0 0 1 2.557-9.545l16.735-9.664-16.735-9.664a6.988 6.988 0 0 1 6.989-12.102l16.733 9.662V314.63a6.988 6.988 0 0 1 13.975 0v19.312l16.733-9.663a6.988 6.988 0 1 1 6.989 12.104zm93.471-.001-16.728 9.665 16.728 9.665a6.988 6.988 0 1 1-6.991 12.1l-16.704-9.651v19.301c0 3.859-3.129 6.988-6.987 6.988s-6.987-3.129-6.987-6.988v-19.317l-16.732 9.667a6.985 6.985 0 0 1-9.546-2.554 6.988 6.988 0 0 1 2.555-9.546l16.728-9.665-16.728-9.665a6.988 6.988 0 1 1 6.991-12.1l16.732 9.667V314.63c0-3.859 3.129-6.988 6.987-6.988s6.987 3.129 6.987 6.988v19.301l16.704-9.651a6.988 6.988 0 1 1 6.991 12.102zM210.892 20.558c90.761 0 169.687 62.557 190.843 149.935h-32.137a6.99 6.99 0 0 0-5.307 11.534l43.284 50.526a6.986 6.986 0 0 0 10.615-.001l43.255-50.526a6.989 6.989 0 0 0-5.309-11.533h-40.058C394.617 75.174 309.245 6.582 210.892 6.582 94.881 6.582.5 100.951.5 216.946c0 3.859 3.129 6.988 6.987 6.988s6.987-3.129 6.987-6.988c.001-108.289 88.113-196.388 196.418-196.388zm201.987 196.707-28.095-32.796h56.171z" fill="#ffffff" opacity="1" data-original="#000000" class=""></path></g></svg>