<svg xmlns="http://www.w3.org/2000/svg" version="1.1" xmlns:xlink="http://www.w3.org/1999/xlink" width="512" height="512" x="0" y="0" viewBox="0 0 512 512" style="enable-background:new 0 0 512 512" xml:space="preserve" class=""><g><path d="M437.655 412.06c13.248-9.859 21.846-25.632 21.846-43.378 0-29.802-24.245-54.047-54.047-54.047s-54.047 24.245-54.047 54.047c0 17.771 8.624 33.562 21.903 43.419a99.293 99.293 0 0 0-42.528 28.612c-11.327-13.01-25.973-22.976-42.582-28.652 13.248-9.859 21.846-25.632 21.846-43.378 0-29.802-24.245-54.047-54.046-54.047-29.802 0-54.047 24.245-54.047 54.047 0 17.746 8.599 33.519 21.846 43.378a98.9 98.9 0 0 0-42.583 28.653 99.295 99.295 0 0 0-42.526-28.612c13.279-9.857 21.903-25.648 21.903-43.419 0-29.802-24.245-54.047-54.046-54.047-29.802 0-54.047 24.245-54.047 54.047 0 17.746 8.599 33.519 21.846 43.378-35.514 12.137-62.102 43.854-66.301 83.089A7.996 7.996 0 0 0 16 504l480-.001a8 8 0 0 0 7.954-8.851c-4.199-39.234-30.786-70.951-66.299-83.088zm-70.248-43.378c0-20.979 17.067-38.047 38.047-38.047s38.047 17.067 38.047 38.047c0 20.973-17.057 38.035-38.027 38.046h-.044c-20.968-.013-38.023-17.075-38.023-38.046zm-149.453 0c0-20.979 17.067-38.047 38.047-38.047 20.979 0 38.046 17.067 38.046 38.047 0 20.973-17.057 38.036-38.026 38.046h-.041c-20.97-.011-38.026-17.074-38.026-38.046zm-149.453 0c0-20.979 17.067-38.047 38.047-38.047 20.979 0 38.046 17.067 38.046 38.047 0 20.972-17.055 38.033-38.022 38.046h-.044c-20.971-.011-38.027-17.074-38.027-38.046zm38.026 54.046h.021l.023-.001c25.319.007 49.197 11.604 64.909 31.27a98.56 98.56 0 0 0-12.928 34.001L25.381 488c8.18-37.773 41.619-65.263 81.146-65.272zM174.835 488c8.179-37.773 41.617-65.263 81.145-65.272h.042c39.526.01 72.964 27.5 81.145 65.271zm178.613-.001a98.554 98.554 0 0 0-12.929-34.001c15.712-19.666 39.591-31.262 64.911-31.27l.024.001h.021c39.527.01 72.964 27.499 81.145 65.271H353.448zM16 313.293h49.662a8 8 0 0 0 8-8v-52.782a8 8 0 0 0-8-8H16a8 8 0 0 0-8 8v52.782a8 8 0 0 0 8 8zm8-52.782h33.662v36.782H24zm99.338-65.19a8 8 0 0 0-8 8v101.972a8 8 0 0 0 8 8h49.661a8 8 0 0 0 8-8V203.321a8 8 0 0 0-8-8zm41.661 101.972h-33.661v-85.972h33.661zm115.337-151.164h-49.661a8 8 0 0 0-8 8v151.164a8 8 0 0 0 8 8h49.661a8 8 0 0 0 8-8V154.129a8 8 0 0 0-8-8zm-8 151.164h-33.661V162.129h33.661zm65.676 16h49.661a8 8 0 0 0 8-8V179.197a86.818 86.818 0 0 0 21.396 2.667c47.935 0 86.932-38.998 86.932-86.932C504 46.998 465.003 8 417.068 8s-86.932 38.998-86.932 86.932c0 3.385.201 6.722.58 10.007h-.705v200.354a8.002 8.002 0 0 0 8.001 8zM417.068 24C456.181 24 488 55.82 488 94.932s-31.819 70.932-70.932 70.932-70.932-31.82-70.932-70.932C346.137 55.82 377.956 24 417.068 24zm-37.395 149.4v123.893h-33.661V144.956c8.565 12.131 20.154 21.98 33.661 28.444zM23.314 184.547a8 8 0 0 1 2.928-10.928L279.25 27.544l-21.171-3.662a8 8 0 0 1 2.726-15.766l42.94 7.427a7.998 7.998 0 0 1 6.145 10.644l-15.039 40.9a8.004 8.004 0 0 1-7.51 5.241 8.001 8.001 0 0 1-7.508-10.763l7.415-20.166L34.242 187.475a7.997 7.997 0 0 1-10.928-2.928zm360.67-66.447a8.001 8.001 0 0 1 15.525-3.871c2.182 8.754 11.287 11.649 18.398 11.489 6.165-.147 12.103-2.321 14.774-5.411 1.404-1.624 1.922-3.51 1.628-5.934-.508-4.18-3.065-9.303-18.466-11.832-23.499-3.858-28.988-16.153-29.455-25.789-.644-13.247 8.46-24.336 22.679-27.665v-4.104a8 8 0 0 1 16 0v4.033c9.232 2.05 18.022 7.903 22.614 18.839a7.999 7.999 0 0 1-4.279 10.473c-4.067 1.709-8.761-.205-10.473-4.279-3.7-8.811-12.749-11.08-20.076-9.416-1.822.413-10.895 2.903-10.484 11.342.109 2.244.397 8.203 16.066 10.776 19.389 3.184 30.073 11.827 31.757 25.691.841 6.928-1.029 13.266-5.409 18.329-4.489 5.19-11.585 8.829-19.716 10.268v3.838a8 8 0 0 1-16 0v-3.97c-12.534-2.567-22.146-11.032-25.083-22.807z" fill="#ffffff" opacity="1" data-original="#000000" class=""></path></g></svg>