<svg xmlns="http://www.w3.org/2000/svg" version="1.1" xmlns:xlink="http://www.w3.org/1999/xlink" width="512" height="512" x="0" y="0" viewBox="0 0 512 512" style="enable-background:new 0 0 512 512" xml:space="preserve" class=""><g><path d="M362.544 504.5h37.5V7.5H44.456V45m0 15v444.5h303.088M362.544 37.5h15m-45 0h15M452.543 75.999c8.25 0 15 6.751 15 15.001v315.001l-15 30-15-30V91c0-8.25 6.75-15.001 15-15.001zM437.543 256h30M437.543 256h30M437.543 256h30M437.543 113.5h30M437.543 383.501h30" style="fill-rule:evenodd;clip-rule:evenodd;stroke-width:15;stroke-miterlimit:22.9256;" fill-rule="evenodd" clip-rule="evenodd" fill="none" stroke="#ffffff" stroke-width="15" stroke-miterlimit="22.9256" data-original="#000000" opacity="1"></path><path d="M275.174 101.226c0 12.859-7.137 23.136-18.459 23.334h-13.604V77.892h13.218c12.418 0 18.845 10.475 18.845 23.334z" style="fill-rule:evenodd;clip-rule:evenodd;stroke-width:15;stroke-linecap:square;stroke-miterlimit:10;" fill-rule="evenodd" clip-rule="evenodd" fill="none" stroke="#ffffff" stroke-width="15" stroke-linecap="square" stroke-miterlimit="10" data-original="#000000" opacity="1"></path><path d="M91.852 75.888h26.558M105.078 78.474v45.504" style="fill-rule:evenodd;clip-rule:evenodd;stroke-width:15;stroke-linecap:square;stroke-linejoin:round;stroke-miterlimit:10;" fill-rule="evenodd" clip-rule="evenodd" fill="none" stroke="#ffffff" stroke-width="15" stroke-linecap="square" stroke-linejoin="round" stroke-miterlimit="10" data-original="#000000" opacity="1"></path><circle cx="166.567" cy="99.933" r="24.045" style="fill-rule:evenodd;clip-rule:evenodd;stroke-width:15;stroke-linecap:round;stroke-linejoin:bevel;stroke-miterlimit:10;" transform="rotate(-45.001 166.566 99.935)" fill-rule="evenodd" clip-rule="evenodd" fill="none" stroke="#ffffff" stroke-width="15" stroke-linecap="round" stroke-linejoin="bevel" stroke-miterlimit="10" data-original="#000000" opacity="1"></circle><circle cx="328.603" cy="99.933" r="24.045" style="fill-rule:evenodd;clip-rule:evenodd;stroke-width:15;stroke-linecap:round;stroke-linejoin:bevel;stroke-miterlimit:10;" transform="rotate(-45.001 328.603 99.937)" fill-rule="evenodd" clip-rule="evenodd" fill="none" stroke="#ffffff" stroke-width="15" stroke-linecap="round" stroke-linejoin="bevel" stroke-miterlimit="10" data-original="#000000" opacity="1"></circle><path d="M157.313 196.113h197.373M157.313 376.112h197.373m-197.373 60h197.373m-197.373-180h197.373m-197.373 60h197.373M97.313 166.112h30v30h-30v-30zm0 239.999h30v30h-30v-30zm0-60h30v30h-30v-30zm0-60h30v30h-30v-30zm0-59.999h30v30h-30v-30z" style="fill-rule:evenodd;clip-rule:evenodd;stroke-width:15;stroke-miterlimit:22.9256;" fill-rule="evenodd" clip-rule="evenodd" fill="none" stroke="#ffffff" stroke-width="15" stroke-miterlimit="22.9256" data-original="#000000" opacity="1"></path></g></svg>