<svg width="20" height="20" viewBox="0 0 20 20" fill="none" xmlns="http://www.w3.org/2000/svg">
<g clip-path="url(#clip0_13_2044)">
<path d="M10.0004 -0.0212402C4.47477 -0.0212402 -0.0214844 4.47376 -0.0214844 10C-0.0214844 15.5263 4.47477 20.0213 10.0004 20.0213C15.526 20.0213 20.0223 15.5263 20.0223 10C20.0223 4.47376 15.526 -0.0212402 10.0004 -0.0212402ZM10.0004 19.3538C4.84289 19.3538 0.647266 15.1575 0.647266 10C0.647266 4.84251 4.84289 0.64626 10.0004 0.64626C15.1579 0.64626 19.3535 4.84251 19.3535 10C19.3535 15.1575 15.1579 19.3538 10.0004 19.3538Z" fill="#BE6615"/>
<path d="M15.4969 6.90376C15.5662 6.77543 15.6234 6.64089 15.6675 6.50188C15.688 6.43741 15.6884 6.36825 15.6687 6.30353C15.649 6.23881 15.6102 6.18159 15.5573 6.1394C15.5044 6.09722 15.44 6.07207 15.3725 6.06727C15.3051 6.06247 15.2377 6.07824 15.1794 6.11251C14.8592 6.30276 14.5125 6.44451 14.1507 6.53314C13.7115 6.13674 13.141 5.91699 12.5494 5.91626C12.228 5.91651 11.9099 5.98165 11.6143 6.1078C11.3186 6.23394 11.0515 6.41848 10.8289 6.65036C10.6063 6.88223 10.4328 7.15667 10.3189 7.45721C10.2049 7.75775 10.1528 8.07822 10.1657 8.39938C8.76005 8.22243 7.4765 7.51117 6.58129 6.41313C6.54699 6.37154 6.50316 6.33883 6.45352 6.3178C6.40387 6.29676 6.34988 6.28802 6.29614 6.29232C6.2424 6.29661 6.19048 6.31382 6.14481 6.34247C6.09913 6.37112 6.06105 6.41037 6.03379 6.45689C5.82881 6.80871 5.71739 7.2072 5.71017 7.61432C5.70295 8.02145 5.80016 8.42363 5.99254 8.78251C5.94536 8.79047 5.90003 8.80699 5.85879 8.83126C5.80826 8.86348 5.76665 8.90791 5.73782 8.96045C5.70898 9.013 5.69384 9.07195 5.69379 9.13189C5.69379 9.84126 6.00942 10.4925 6.51817 10.935L6.49629 10.9569C6.45788 11.0003 6.43146 11.053 6.41962 11.1098C6.40779 11.1666 6.41095 11.2255 6.42879 11.2806C6.53488 11.6116 6.71201 11.9154 6.9478 12.1707C7.18358 12.426 7.47231 12.6267 7.79379 12.7588C7.13354 13.0809 6.39464 13.2065 5.66504 13.1206C5.59005 13.113 5.51463 13.1304 5.45062 13.1703C5.3866 13.2101 5.3376 13.27 5.31129 13.3406C5.28603 13.4118 5.28555 13.4894 5.30995 13.5609C5.33434 13.6324 5.38217 13.6935 5.44567 13.7344C6.43755 14.371 7.59145 14.7092 8.77004 14.7088C12.6325 14.7088 14.9413 11.5713 14.9413 8.53814L14.9407 8.43563C15.315 8.14339 15.6402 7.79313 15.9038 7.39813C15.9437 7.33842 15.9633 7.26744 15.9598 7.1957C15.9562 7.12395 15.9296 7.05527 15.884 6.9998C15.8384 6.94434 15.7761 6.90505 15.7063 6.88776C15.6366 6.87046 15.5632 6.87607 15.4969 6.90376ZM14.4063 8.00063C14.3609 8.03325 14.3245 8.0767 14.3002 8.12703C14.276 8.17737 14.2648 8.23297 14.2675 8.28876C14.2713 8.37126 14.2732 8.45501 14.2732 8.53751C14.2732 11.2425 12.215 14.0406 8.77067 14.0406C8.15636 14.0409 7.54638 13.9378 6.96629 13.7356C7.66104 13.6025 8.31369 13.3046 8.86942 12.8669C8.92351 12.8242 8.96312 12.7659 8.98281 12.6999C9.0025 12.6339 9.00132 12.5634 8.97944 12.4981C8.95755 12.4328 8.91602 12.3758 8.86053 12.335C8.80504 12.2941 8.73829 12.2715 8.66942 12.27C8.39993 12.2649 8.13543 12.1965 7.89724 12.0703C7.65905 11.9442 7.45384 11.7638 7.29817 11.5438C7.45629 11.5331 7.61129 11.5069 7.76192 11.4663C7.83482 11.4467 7.89895 11.4031 7.94386 11.3425C7.98876 11.2818 8.01179 11.2077 8.00918 11.1323C8.00657 11.0569 7.97848 10.9846 7.92948 10.9272C7.88049 10.8698 7.81349 10.8307 7.73942 10.8163C7.43506 10.7543 7.15325 10.6109 6.92416 10.4011C6.69506 10.1914 6.52729 9.92335 6.43879 9.62564C6.60504 9.66751 6.77567 9.69188 6.94629 9.69751C7.09317 9.69688 7.22942 9.60689 7.27504 9.46564C7.32067 9.32439 7.26692 9.16876 7.14254 9.08626C6.84846 8.89033 6.62203 8.60839 6.49417 8.27896C6.36632 7.94953 6.34327 7.58866 6.42817 7.24564C7.51381 8.35958 8.97976 9.02292 10.5332 9.10313C10.6432 9.10376 10.7394 9.06438 10.8063 8.98376C10.8732 8.90313 10.8988 8.79626 10.875 8.69376C10.7896 8.32563 10.8278 7.9396 10.9838 7.59539C11.1399 7.25119 11.405 6.968 11.7382 6.78966C12.0714 6.61132 12.4541 6.54777 12.827 6.60884C13.2 6.66992 13.5424 6.85221 13.8013 7.12751C13.8401 7.16891 13.8888 7.19976 13.9428 7.21714C13.9968 7.23453 14.0544 7.23788 14.11 7.22688C14.2132 7.20626 14.315 7.18251 14.4157 7.15501C14.3703 7.18897 14.3232 7.22047 14.2744 7.24938C14.2096 7.28909 14.1603 7.34968 14.1345 7.42119C14.1087 7.49269 14.1081 7.57084 14.1327 7.64275C14.1573 7.71466 14.2057 7.77605 14.2698 7.81679C14.334 7.85753 14.4101 7.8752 14.4857 7.86688L14.5994 7.85251C14.5368 7.90411 14.4724 7.95351 14.4063 8.00063Z" fill="#BE6615"/>
</g>
<defs>
<clipPath id="clip0_13_2044">
<rect width="20" height="20" fill="white"/>
</clipPath>
</defs>
</svg>
